<?xml version="1.0" encoding="utf-8"?>
<!-- Generator: Adobe Illustrator 18.0.0, SVG Export Plug-In . SVG Version: 6.00 Build 0)  -->
<!DOCTYPE svg PUBLIC "-//W3C//DTD SVG 1.1//EN" "http://www.w3.org/Graphics/SVG/1.1/DTD/svg11.dtd">
<svg version="1.1" id="Layer_1" xmlns="http://www.w3.org/2000/svg" xmlns:xlink="http://www.w3.org/1999/xlink" x="0px" y="0px"
	 viewBox="0 0 30 33" enable-background="new 0 0 30 33" xml:space="preserve">
<g>
	<g>
		<defs>
			<rect id="SVGID_1_" y="1.5" width="30" height="30"/>
		</defs>
		<clipPath id="SVGID_2_">
			<use xlink:href="#SVGID_1_"  overflow="visible"/>
		</clipPath>
		<path clip-path="url(#SVGID_2_)" fill="#FFFFFF" d="M13.5,14.7c0.3-0.6-0.1-1-0.4-1c-1.3,0-3.1,3.1-3.7,3.1
			c-0.3,0-0.5-0.3-0.5-0.5c0-0.6,1.6-2.2,2.1-2.6c1.4-1.4,3.3-2.4,5.4-2.4c1.5,0,3.2,0.9,1.9,4.4l-2.6,7c-0.2,0.5-0.6,1.4-0.6,2
			c0,0.3,0.1,0.5,0.4,0.5c1.1,0,3.1-3.1,3.6-3.1c0.2,0,0.4,0.2,0.4,0.5c0,1-4.2,5.5-7.8,5.5c-1.3,0-2.2-0.6-2.2-2
			c0-1.7,1.2-4.7,1.5-5.3L13.5,14.7z M15.4,7.6c0-1.6,1.4-2.9,2.9-2.9c1.4,0,2.5,1,2.5,2.4c0,1.7-1.4,2.9-3,2.9
			C16.4,10,15.4,9.1,15.4,7.6"/>
	</g>
</g>
</svg>
