<?xml version="1.0" encoding="utf-8"?>
<!-- Generator: Adobe Illustrator 18.1.0, SVG Export Plug-In . SVG Version: 6.00 Build 0)  -->
<!DOCTYPE svg PUBLIC "-//W3C//DTD SVG 1.1//EN" "http://www.w3.org/Graphics/SVG/1.1/DTD/svg11.dtd">
<svg version="1.1" id="Layer_1" xmlns="http://www.w3.org/2000/svg" xmlns:xlink="http://www.w3.org/1999/xlink" x="0px" y="0px"
	 viewBox="0 0 50 60" enable-background="new 0 0 50 60" xml:space="preserve">
<g id="paper-documents-image">
	<path d="M42.4,6.8h-24c-2.7,0-4.9,2.2-4.9,4.9v36.8c0,2.7,2.2,4.9,4.9,4.9h24c2.7,0,4.9-2.2,4.9-4.9V11.7C47.3,9,45.1,6.8,42.4,6.8
		z M45.7,48.5c0,1.8-1.5,3.3-3.3,3.3h-24c-1.8,0-3.3-1.5-3.3-3.3V11.7c0-1.8,1.5-3.3,3.3-3.3h24c1.8,0,3.3,1.5,3.3,3.3V48.5z"/>
	<rect x="19.6" y="30.5" width="21.5" height="1.6"/>
	<rect x="19.6" y="36.2" width="21.5" height="1.6"/>
	<rect x="19.6" y="42" width="10.8" height="1.6"/>
	<rect x="8.3" y="11.2" width="1.6" height="37.7"/>
	<rect x="3.4" y="14.5" width="1.6" height="31.1"/>
	<rect x="19.6" y="13" width="21.5" height="13.2"/>
</g>
</svg>
