<?xml version="1.0" encoding="utf-8"?>
<!-- Generator: Adobe Illustrator 18.1.0, SVG Export Plug-In . SVG Version: 6.00 Build 0)  -->
<!DOCTYPE svg PUBLIC "-//W3C//DTD SVG 1.1//EN" "http://www.w3.org/Graphics/SVG/1.1/DTD/svg11.dtd">
<svg version="1.1" id="Layer_1" xmlns="http://www.w3.org/2000/svg" xmlns:xlink="http://www.w3.org/1999/xlink" x="0px" y="0px"
	 viewBox="0 0 50 60" enable-background="new 0 0 50 60" xml:space="preserve">
<g id="identification">
	<path d="M42.7,14.6H7.9c-2.6,0-4.6,2.1-4.6,4.6v21.5c0,2.6,2.1,4.6,4.6,4.6h34.8c2.6,0,4.6-2.1,4.6-4.6V19.2
		C47.4,16.7,45.3,14.6,42.7,14.6z M45.8,40.8c0,1.7-1.4,3.1-3.1,3.1H29.6c-0.4-0.6-0.8-1.4-1.1-2.3c-0.5-1.5-1.8-2.3-1.8-2.3
		s-4-1-5.3-1.6c-0.7-0.3-1.1-1-1.3-1.7c2.1-1.3,3.6-4.1,3.6-7.8c0-5-2.8-6.4-6.2-6.4c-3.5,0-6.3,1.4-6.3,6.4c0,3.7,1.5,6.5,3.6,7.7
		c-0.2,0.7-0.6,1.4-1.3,1.7c-1.3,0.6-5.3,1.6-5.3,1.6s-1.3,0.8-1.8,2.3c-0.1,0.5-0.4,1-0.6,1.4c-0.6-0.6-1-1.4-1-2.2V19.2
		c0-1.7,1.4-3.1,3.1-3.1h34.8c1.7,0,3.1,1.4,3.1,3.1V40.8z"/>
	<rect x="29.9" y="21.7" width="11.6" height="1.5"/>
	<rect x="29.9" y="27.1" width="11.6" height="1.5"/>
	<rect x="29.9" y="32.5" width="11.6" height="1.5"/>
	<rect x="36.9" y="37.9" width="4.6" height="1.5"/>
</g>
</svg>
